<svg xmlns="http://www.w3.org/2000/svg" width="14.575" height="25.912" viewBox="0 0 14.575 25.912"><path d="M7.288,30.912A7.3,7.3,0,0,1,0,23.625a7.214,7.214,0,0,1,1.619-4.53V10.669A5.669,5.669,0,0,1,11.3,6.66a5.632,5.632,0,0,1,1.659,4.009v8.426a7.192,7.192,0,0,1,1.619,4.53A7.3,7.3,0,0,1,7.288,30.912Zm0-22.673a2.432,2.432,0,0,0-2.429,2.429V20.4a4.049,4.049,0,1,0,4.858,0V10.669A2.432,2.432,0,0,0,7.288,8.239Zm0,17.814a2.425,2.425,0,0,1-.81-4.712v-.956a.81.81,0,1,1,1.619,0v.956a2.425,2.425,0,0,1-.81,4.712Z" transform="translate(0 -5)" fill="#fff"/></svg>