<svg xmlns="http://www.w3.org/2000/svg" width="31.91" height="17.735" viewBox="0 0 31.91 17.735"><path d="M13.484,16.735H10.857V0h2.628l1.867,2.351a18.984,18.984,0,0,1,4.981-.715,10.673,10.673,0,0,1,4.077.715c3.845,1.589,6.475,6.383,6.5,6.431-.11.181-2.719,4.4-6.5,5.809a11.7,11.7,0,0,1-4.077.645,20.845,20.845,0,0,1-4.981-.645l-1.867,2.144Zm4.4-8.379a3.5,3.5,0,1,0,3.5-3.5A3.5,3.5,0,0,0,17.885,8.356ZM0,8.574,8.574,5.187V12.1Z" transform="translate(0.5 0.5)" fill="#26387e" stroke="#26387e" stroke-linecap="round" stroke-linejoin="round" stroke-width="1"/></svg>