<svg xmlns="http://www.w3.org/2000/svg" width="26" height="26" viewBox="0 0 26 26"><g transform="translate(-3.375 -3.375)"><path d="M9,29.25H25v3H9Z" transform="translate(-0.625 -2.875)" fill="#fff"/><path d="M17.379,19.379a2,2,0,1,0-.55-3.925L12.66,12.41l-.25.219L15.466,16.8a1.951,1.951,0,0,0-.088.581A2,2,0,0,0,17.379,19.379Z" transform="translate(-1.004 -1.004)" fill="#fff"/><path d="M16.375,3.375a13,13,0,0,0-10.244,21H9.806l.25-.25,1.381-1.381-1.431-1.431L8.625,22.688a9.962,9.962,0,0,1-2.2-5.313h1.95v-2H6.425a9.962,9.962,0,0,1,2.2-5.312l1.381,1.375,1.431-1.431L10.063,8.625a9.962,9.962,0,0,1,5.312-2.2v1.95h2V6.425a9.962,9.962,0,0,1,5.313,2.2l-1.375,1.381,1.431,1.431,1.381-1.375a9.962,9.962,0,0,1,2.2,5.312h-1.95v2h1.95a9.962,9.962,0,0,1-2.2,5.313l-1.381-1.375-1.431,1.431,1.381,1.381.25.25h3.675a13,13,0,0,0-10.244-21Z" transform="translate(0 0)" fill="#fff"/></g></svg>