<svg xmlns="http://www.w3.org/2000/svg" width="23" height="23" viewBox="0 0 23 23"><path d="M11.5,23A11.5,11.5,0,0,1,3.368,3.368,11.5,11.5,0,1,1,19.631,19.631,11.422,11.422,0,0,1,11.5,23ZM11.026,2.352h0c-.17.022-4.2.561-6.3,2.444C2.6,6.707,2.392,10.062,2.39,10.1A5.751,5.751,0,0,0,3.1,13.151a1.994,1.994,0,0,0,1.456.742c.446.074.83.138,1.039.534a1.011,1.011,0,0,1-.16,1.174,2.869,2.869,0,0,0-.44.984,3.569,3.569,0,0,0,.6,2.668,8.49,8.49,0,0,0,5.717,2.06,8.987,8.987,0,0,0,.972-.053c3.609-.4,4.712-1.166,6.892-3.8a8.24,8.24,0,0,0,1.946-6.489l-.009-.181a.057.057,0,0,0,0-.014c-.006.011-.01.566,0,.754-.143-1.405-.566-2.465-.986-2.465-.157,0-.3.146-.435.434a6.711,6.711,0,0,0-.37,2.041v.01a9.432,9.432,0,0,1-.905,3.809,5.4,5.4,0,0,1-3.315,2.56,2.135,2.135,0,0,1-1.5-1.573,3.753,3.753,0,0,1-.02-1.8,2.576,2.576,0,0,0-.386-2.318,1.348,1.348,0,0,0-1.1-.48,5.007,5.007,0,0,0-.894.113H11.2a5.077,5.077,0,0,1-.918.114,1.519,1.519,0,0,1-1.138-.445c-1.2-1.19-.013-3.641,0-3.666A7.956,7.956,0,0,1,9.785,5.68c.1-.251.182-.444.233-.574a2.259,2.259,0,0,0,.163-.31c.116-.238.216-.433.3-.6l.042-.081A7.77,7.77,0,0,0,11.026,3c.126-.364.1-.525.06-.6A.1.1,0,0,0,11.026,2.352Zm2.757,3.863c-.228,0-.335.1-.335.3,0,.617,1.255,1.684,2.1,1.785a.707.707,0,0,0,.084.005.494.494,0,0,0,.379-.164,1.833,1.833,0,0,0,.25-1.136s-.151-.391-.982-.49a6.031,6.031,0,0,1-.764-.162A3.377,3.377,0,0,0,13.783,6.215Z" fill="#26387e"/></svg>