<svg xmlns="http://www.w3.org/2000/svg" width="25" height="25.924" viewBox="0 0 25 25.924"><path d="M5.2,28.258C.878,24.682-.562,17.324-.562,17.324a1.117,1.117,0,0,1,.64-1.409,1.146,1.146,0,0,1,1.423.632s1.208,6.8,4.964,9.909,10.112,2.829,10.112,2.829a1.182,1.182,0,1,1,.166,2.345s-.076,0-.217,0C15.294,31.632,9.086,31.468,5.2,28.258Zm11.417.15-1.076-2.123.766-4.345a12.874,12.874,0,0,0,3.845.628l-.774,4.394-1.738,1.628a.649.649,0,0,1-1.023-.181Zm-3.746-9.852A11.665,11.665,0,0,1,10.2,15.3L4.8,17.27l-2.278-.692a.649.649,0,0,1-.355-.975l1.3-1.994L8.9,11.631a11.644,11.644,0,0,1-.123-3.388.651.651,0,0,1,.762-.551l1.282.224a.651.651,0,0,1,.525.723,9.077,9.077,0,0,0,.03,2.09l5.208-1.9A3.849,3.849,0,0,1,17.4,7.1a3.895,3.895,0,1,1,5.967,5.008,3.843,3.843,0,0,1-1.565,1.1l-.73,4.139a7.726,7.726,0,0,1-3.844-.634l.72-4.083c-.022-.017-.047-.028-.069-.047s-.036-.041-.057-.059L12.689,14.4A9,9,0,0,0,23.063,18.29a.651.651,0,0,1,.81.376l.466,1.216a.652.652,0,0,1-.4.854,11.706,11.706,0,0,1-11.067-2.181ZM19.393,8.77a1.3,1.3,0,1,0,1-.464A1.3,1.3,0,0,0,19.393,8.77Z" transform="translate(0.617 -5.709)" fill="#fff"/></svg>