<svg xmlns="http://www.w3.org/2000/svg" width="30" height="30.138" viewBox="0 0 30 30.138"><path d="M4.781,26.132A15.032,15.032,0,0,1,0,16.325H1.884a13.218,13.218,0,0,0,7.5,10.649l1.67-1.657L15.835,30.1l-.829.038A15,15,0,0,1,4.781,26.132Zm.153-11.063A10.066,10.066,0,1,1,15,25.135,10.066,10.066,0,0,1,4.934,15.069ZM10.6,12.552a.631.631,0,0,1,.445.184c.023.023,2.367,2.332,4.588,2.332a.629.629,0,0,1,.629.629v1.888A.627.627,0,0,1,16.1,18L11.516,23.16a8.814,8.814,0,0,0,9.778-1.931.559.559,0,0,1,.016-.1,14.779,14.779,0,0,0,.165-7.32c-.062,0-.125,0-.187,0a3.775,3.775,0,0,1-2.666-6.444q.115-.115.237-.217a8.834,8.834,0,0,0-6.375-.523V8.149a.629.629,0,0,1-.184.445L9.783,11.11a.632.632,0,0,1-.445.184h-2.3a8.813,8.813,0,0,0,2.926,11V18.6L7.8,17.519a.628.628,0,0,1-.348-.563V13.182a.63.63,0,0,1,.629-.63ZM30,13.8H28.116A13.212,13.212,0,0,0,20.632,3.152l-1.67,1.67L14.177.038,15.006,0A15.041,15.041,0,0,1,30,13.8h0Z" fill="#fff"/></svg>